<svg width="1835" height="615" viewBox="0 0 1835 615" fill="none" xmlns="http://www.w3.org/2000/svg">
<g clip-path="url(#clip0_153_1680)">
<path d="M142.98 144.4H0V428.31H142.98V144.4Z" fill="#ED2020"/>
<path d="M567.83 144.4H424.85V428.31H567.83V144.4Z" fill="#ED2020"/>
<path d="M275.75 407.89V350.19C275.75 350.19 256.85 354.27 246.13 354.27C246.13 354.27 222.64 356.82 224.13 360.4C224.13 360.4 222.13 350.7 227.2 336.4C227.2 336.4 225.66 328.74 219.54 325.68C213.42 322.62 172.54 291.35 172.54 287.58C172.54 287.58 176.11 282.78 188.37 281.25C188.947 278.567 189.118 275.814 188.88 273.08C188.37 269.51 172.54 248.57 172.54 248.57C172.54 248.57 173.54 241.93 199.6 248.57C199.6 248.57 210.32 256.46 211.35 245.62C212.38 234.78 215.94 229.17 215.94 229.17C215.94 229.17 224.11 233.25 236.37 250.61C248.63 267.97 249.64 257.76 250.67 251.12C245.909 241.475 241.647 231.592 237.9 221.51C237.9 221.51 234.32 200.06 236.9 191.89C236.9 191.89 245.07 191.38 253.75 201.08C253.75 201.08 262.94 211.8 267.03 202.08C267.03 202.08 275.64 174 284.83 162.76V407.89H275.75Z" fill="#ED2020"/>
<path d="M294 407.89V350.19C294 350.19 312.9 354.27 323.62 354.27C323.62 354.27 347.11 356.82 345.62 360.4C345.62 360.4 347.62 350.7 342.55 336.4C342.55 336.4 344.08 328.74 350.21 325.68C356.34 322.62 397.21 291.35 397.21 287.58C397.21 287.58 393.64 282.78 381.38 281.25C380.803 278.567 380.632 275.814 380.87 273.08C381.38 269.51 397.21 248.57 397.21 248.57C397.21 248.57 396.21 241.93 370.15 248.57C370.15 248.57 359.42 256.46 358.4 245.62C357.38 234.78 353.81 229.17 353.81 229.17C353.81 229.17 345.64 233.25 333.38 250.61C321.12 267.97 320.1 257.76 319.08 251.12C323.84 241.475 328.103 231.592 331.85 221.51C331.85 221.51 335.42 200.06 332.85 191.89C332.85 191.89 324.68 191.38 316 201.08C316 201.08 306.81 211.8 302.72 202.08C302.72 202.08 294.11 174 284.91 162.76V407.89H294Z" fill="#ED2020"/>
<path d="M822.098 55.1895V89.0225C820.956 90.7152 819.136 92.6195 816.639 94.7354C814.143 96.809 810.694 98.6286 806.293 100.194C801.934 101.718 796.306 102.48 789.408 102.48C783.78 102.48 778.596 101.506 773.856 99.5596C769.159 97.5707 765.075 94.6931 761.605 90.9268C758.177 87.1182 755.511 82.5056 753.607 77.0889C751.745 71.6299 750.814 65.4516 750.814 58.5538V51.3809C750.814 44.4831 751.618 38.3259 753.226 32.9092C754.877 27.4926 757.289 22.9011 760.463 19.1348C763.636 15.3262 767.53 12.4486 772.142 10.502C776.755 8.51308 782.045 7.51862 788.011 7.51862C795.079 7.51862 800.982 8.74583 805.721 11.2003C810.503 13.6124 814.227 16.9555 816.893 21.2296C819.602 25.5036 821.337 30.3702 822.098 35.8292H809.847C809.297 32.4861 808.197 29.4392 806.547 26.6885C804.939 23.9379 802.632 21.7374 799.628 20.087C796.623 18.3943 792.751 17.5479 788.011 17.5479C783.737 17.5479 780.035 18.3308 776.903 19.8965C773.772 21.4623 771.19 23.7051 769.159 26.6251C767.128 29.545 765.604 33.0785 764.589 37.2256C763.615 41.3728 763.129 46.0489 763.129 51.254V58.5538C763.129 63.8858 763.742 68.6465 764.969 72.836C766.239 77.0255 768.038 80.6013 770.365 83.5635C772.692 86.4835 775.464 88.7051 778.68 90.2286C781.939 91.752 785.536 92.5137 789.471 92.5137C793.83 92.5137 797.364 92.154 800.072 91.4346C802.78 90.6729 804.896 89.7842 806.42 88.7686C807.943 87.7107 809.107 86.7162 809.911 85.7852V65.0919H788.519V55.1895H822.098ZM853.392 3.71002V101.21H841.586V3.71002H853.392ZM869.135 67.6309V66.171C869.135 61.2198 869.854 56.6283 871.293 52.3965C872.732 48.1225 874.805 44.4197 877.513 41.2881C880.222 38.1143 883.501 35.6599 887.352 33.9249C891.203 32.1475 895.52 31.2589 900.302 31.2589C905.126 31.2589 909.463 32.1475 913.314 33.9249C917.207 35.6599 920.508 38.1143 923.217 41.2881C925.967 44.4197 928.062 48.1225 929.501 52.3965C930.94 56.6283 931.659 61.2198 931.659 66.171V67.6309C931.659 72.5821 930.94 77.1736 929.501 81.4053C928.062 85.6371 925.967 89.3399 923.217 92.5137C920.508 95.6452 917.229 98.0997 913.378 99.877C909.569 101.612 905.253 102.48 900.428 102.48C895.604 102.48 891.267 101.612 887.416 99.877C883.565 98.0997 880.264 95.6452 877.513 92.5137C874.805 89.3399 872.732 85.6371 871.293 81.4053C869.854 77.1736 869.135 72.5821 869.135 67.6309ZM880.878 66.171V67.6309C880.878 71.0587 881.28 74.296 882.084 77.3428C882.888 80.3474 884.094 83.0134 885.702 85.3409C887.352 87.6684 889.405 89.5092 891.859 90.8633C894.314 92.1752 897.17 92.8311 900.428 92.8311C903.645 92.8311 906.459 92.1752 908.871 90.8633C911.325 89.5092 913.357 87.6684 914.965 85.3409C916.573 83.0134 917.779 80.3474 918.583 77.3428C919.429 74.296 919.852 71.0587 919.852 67.6309V66.171C919.852 62.7855 919.429 59.5906 918.583 56.586C917.779 53.5391 916.552 50.8519 914.901 48.5245C913.293 46.1547 911.262 44.2927 908.807 42.9385C906.395 41.5844 903.56 40.9073 900.302 40.9073C897.085 40.9073 894.25 41.5844 891.796 42.9385C889.384 44.2927 887.352 46.1547 885.702 48.5245C884.094 50.8519 882.888 53.5391 882.084 56.586C881.28 59.5906 880.878 62.7855 880.878 66.171ZM946.322 3.71002H958.129V87.8799L957.113 101.21H946.322V3.71002ZM1004.53 66.2979V67.6309C1004.53 72.6244 1003.94 77.2582 1002.75 81.5323C1001.57 85.7641 999.833 89.4457 997.548 92.5772C995.262 95.7087 992.469 98.142 989.169 99.877C985.868 101.612 982.08 102.48 977.806 102.48C973.448 102.48 969.618 101.739 966.317 100.258C963.059 98.7344 960.308 96.5551 958.065 93.7198C955.822 90.8845 954.024 87.4568 952.67 83.4366C951.358 79.4164 950.448 74.8884 949.94 69.8526V64.0128C950.448 58.9346 951.358 54.3855 952.67 50.3653C954.024 46.3451 955.822 42.9174 958.065 40.0821C960.308 37.2045 963.059 35.0251 966.317 33.544C969.576 32.0206 973.363 31.2589 977.679 31.2589C981.996 31.2589 985.826 32.1052 989.169 33.7979C992.512 35.4483 995.305 37.8181 997.548 40.9073C999.833 43.9965 1001.57 47.6993 1002.75 52.0157C1003.94 56.2898 1004.53 61.0505 1004.53 66.2979ZM992.723 67.6309V66.2979C992.723 62.8702 992.406 59.654 991.771 56.6495C991.136 53.6026 990.121 50.9366 988.724 48.6514C987.328 46.324 985.487 44.5043 983.202 43.1924C980.917 41.8383 978.103 41.1612 974.76 41.1612C971.797 41.1612 969.216 41.669 967.015 42.6846C964.857 43.7003 963.016 45.0756 961.493 46.8106C959.969 48.5033 958.721 50.4499 957.748 52.6505C956.817 54.8087 956.119 57.0515 955.653 59.379V74.6768C956.33 77.6391 957.43 80.4955 958.954 83.2462C960.52 85.9545 962.593 88.1762 965.175 89.9112C967.798 91.6462 971.036 92.5137 974.886 92.5137C978.06 92.5137 980.769 91.879 983.011 90.6094C985.297 89.2976 987.137 87.4991 988.534 85.2139C989.973 82.9288 991.031 80.2839 991.708 77.2794C992.385 74.2748 992.723 71.0587 992.723 67.6309ZM1059.88 89.4669V54.1104C1059.88 51.4021 1059.33 49.0534 1058.23 47.0645C1057.17 45.0333 1055.57 43.4675 1053.41 42.3672C1051.25 41.267 1048.58 40.7169 1045.41 40.7169C1042.45 40.7169 1039.84 41.2247 1037.6 42.2403C1035.4 43.2559 1033.67 44.5889 1032.4 46.2393C1031.17 47.8897 1030.56 49.6671 1030.56 51.5714H1018.81C1018.81 49.1169 1019.45 46.6837 1020.72 44.2715C1021.99 41.8594 1023.81 39.6801 1026.18 37.7335C1028.59 35.7445 1031.47 34.1788 1034.81 33.0362C1038.19 31.8513 1041.96 31.2589 1046.11 31.2589C1051.1 31.2589 1055.5 32.1052 1059.31 33.7979C1063.16 35.4906 1066.17 38.0508 1068.32 41.4786C1070.52 44.864 1071.62 49.1169 1071.62 54.2374V86.2296C1071.62 88.5147 1071.82 90.948 1072.2 93.5294C1072.62 96.1107 1073.23 98.3324 1074.04 100.194V101.21H1061.79C1061.19 99.8559 1060.73 98.0574 1060.39 95.8145C1060.05 93.5294 1059.88 91.4135 1059.88 89.4669ZM1061.91 59.5694L1062.04 67.8214H1050.17C1046.83 67.8214 1043.84 68.0964 1041.22 68.6465C1038.6 69.1544 1036.4 69.9372 1034.62 70.9952C1032.84 72.0531 1031.49 73.3861 1030.56 74.9942C1029.62 76.56 1029.16 78.4008 1029.16 80.5167C1029.16 82.6749 1029.65 84.6426 1030.62 86.42C1031.59 88.1973 1033.05 89.615 1035 90.6729C1036.99 91.6885 1039.42 92.1964 1042.3 92.1964C1045.9 92.1964 1049.07 91.4346 1051.82 89.9112C1054.57 88.3878 1056.75 86.5258 1058.36 84.3253C1060.01 82.1247 1060.9 79.9877 1061.02 77.9141L1066.04 83.5635C1065.74 85.3409 1064.94 87.3087 1063.63 89.4669C1062.31 91.6251 1060.56 93.6986 1058.36 95.6876C1056.2 97.6342 1053.62 99.2634 1050.61 100.575C1047.65 101.845 1044.31 102.48 1040.58 102.48C1035.93 102.48 1031.85 101.57 1028.33 99.7501C1024.86 97.9304 1022.16 95.4971 1020.21 92.4503C1018.3 89.3611 1017.35 85.9122 1017.35 82.1036C1017.35 78.4219 1018.07 75.1846 1019.51 72.3917C1020.95 69.5564 1023.02 67.2077 1025.73 65.3458C1028.44 63.4415 1031.7 62.0027 1035.51 61.0294C1039.32 60.0561 1043.57 59.5694 1048.27 59.5694H1061.91ZM1102.86 3.71002V101.21H1091.05V3.71002H1102.86ZM1189.95 16.9766L1159.35 101.21H1146.84L1182.07 8.78815H1190.14L1189.95 16.9766ZM1215.59 101.21L1184.93 16.9766L1184.74 8.78815H1192.8L1228.16 101.21H1215.59ZM1214 66.9962V77.0255H1162.08V66.9962H1214ZM1256.28 101.21H1244.53V25.2921C1244.53 20.3409 1245.42 16.1726 1247.2 12.7872C1249.02 9.35944 1251.62 6.77806 1255.01 5.04303C1258.39 3.26569 1262.41 2.37701 1267.07 2.37701C1268.42 2.37701 1269.78 2.46165 1271.13 2.63092C1272.53 2.80019 1273.88 3.0541 1275.19 3.39264L1274.56 12.9776C1273.67 12.766 1272.66 12.6179 1271.51 12.5333C1270.41 12.4486 1269.31 12.4063 1268.21 12.4063C1265.71 12.4063 1263.56 12.9141 1261.74 13.9297C1259.96 14.9031 1258.61 16.3419 1257.67 18.2462C1256.74 20.1505 1256.28 22.4991 1256.28 25.2921V101.21ZM1270.88 32.5284V41.5421H1233.68V32.5284H1270.88ZM1301.47 101.21H1289.73V25.2921C1289.73 20.3409 1290.62 16.1726 1292.4 12.7872C1294.22 9.35944 1296.82 6.77806 1300.2 5.04303C1303.59 3.26569 1307.61 2.37701 1312.26 2.37701C1313.62 2.37701 1314.97 2.46165 1316.33 2.63092C1317.72 2.80019 1319.08 3.0541 1320.39 3.39264L1319.75 12.9776C1318.87 12.766 1317.85 12.6179 1316.71 12.5333C1315.61 12.4486 1314.51 12.4063 1313.41 12.4063C1310.91 12.4063 1308.75 12.9141 1306.93 13.9297C1305.16 14.9031 1303.8 16.3419 1302.87 18.2462C1301.94 20.1505 1301.47 22.4991 1301.47 25.2921V101.21ZM1316.07 32.5284V41.5421H1278.88V32.5284H1316.07ZM1369.65 89.4669V54.1104C1369.65 51.4021 1369.1 49.0534 1368 47.0645C1366.94 45.0333 1365.33 43.4675 1363.17 42.3672C1361.01 41.267 1358.35 40.7169 1355.17 40.7169C1352.21 40.7169 1349.61 41.2247 1347.37 42.2403C1345.17 43.2559 1343.43 44.5889 1342.16 46.2393C1340.93 47.8897 1340.32 49.6671 1340.32 51.5714H1328.58C1328.58 49.1169 1329.21 46.6837 1330.48 44.2715C1331.75 41.8594 1333.57 39.6801 1335.94 37.7335C1338.35 35.7445 1341.23 34.1788 1344.57 33.0362C1347.96 31.8513 1351.73 31.2589 1355.87 31.2589C1360.87 31.2589 1365.27 32.1052 1369.08 33.7979C1372.93 35.4906 1375.93 38.0508 1378.09 41.4786C1380.29 44.864 1381.39 49.1169 1381.39 54.2374V86.2296C1381.39 88.5147 1381.58 90.948 1381.96 93.5294C1382.38 96.1107 1383 98.3324 1383.8 100.194V101.21H1371.55C1370.96 99.8559 1370.49 98.0574 1370.16 95.8145C1369.82 93.5294 1369.65 91.4135 1369.65 89.4669ZM1371.68 59.5694L1371.81 67.8214H1359.94C1356.59 67.8214 1353.61 68.0964 1350.99 68.6465C1348.36 69.1544 1346.16 69.9372 1344.38 70.9952C1342.61 72.0531 1341.25 73.3861 1340.32 74.9942C1339.39 76.56 1338.92 78.4008 1338.92 80.5167C1338.92 82.6749 1339.41 84.6426 1340.38 86.42C1341.36 88.1973 1342.82 89.615 1344.76 90.6729C1346.75 91.6885 1349.19 92.1964 1352.06 92.1964C1355.66 92.1964 1358.84 91.4346 1361.59 89.9112C1364.34 88.3878 1366.52 86.5258 1368.12 84.3253C1369.77 82.1247 1370.66 79.9877 1370.79 77.9141L1375.8 83.5635C1375.51 85.3409 1374.7 87.3087 1373.39 89.4669C1372.08 91.6251 1370.32 93.6986 1368.12 95.6876C1365.97 97.6342 1363.38 99.2634 1360.38 100.575C1357.42 101.845 1354.07 102.48 1350.35 102.48C1345.7 102.48 1341.61 101.57 1338.1 99.7501C1334.63 97.9304 1331.92 95.4971 1329.97 92.4503C1328.07 89.3611 1327.12 85.9122 1327.12 82.1036C1327.12 78.4219 1327.84 75.1846 1329.28 72.3917C1330.71 69.5564 1332.79 67.2077 1335.5 65.3458C1338.21 63.4415 1341.46 62.0027 1345.27 61.0294C1349.08 60.0561 1353.33 59.5694 1358.03 59.5694H1371.68ZM1412.62 32.5284V101.21H1400.81V32.5284H1412.62ZM1399.93 14.3106C1399.93 12.4063 1400.5 10.7982 1401.64 9.48639C1402.82 8.17454 1404.56 7.51862 1406.84 7.51862C1409.09 7.51862 1410.8 8.17454 1411.99 9.48639C1413.21 10.7982 1413.83 12.4063 1413.83 14.3106C1413.83 16.1303 1413.21 17.696 1411.99 19.0079C1410.8 20.2774 1409.09 20.9122 1406.84 20.9122C1404.56 20.9122 1402.82 20.2774 1401.64 19.0079C1400.5 17.696 1399.93 16.1303 1399.93 14.3106ZM1443.22 43.3194V101.21H1431.47V32.5284H1442.9L1443.22 43.3194ZM1464.67 32.1475L1464.61 43.0655C1463.63 42.8539 1462.7 42.7269 1461.82 42.6846C1460.97 42.6 1460 42.5577 1458.9 42.5577C1456.19 42.5577 1453.8 42.9809 1451.72 43.8272C1449.65 44.6736 1447.89 45.8585 1446.45 47.3819C1445.02 48.9053 1443.87 50.725 1443.03 52.8409C1442.22 54.9144 1441.69 57.1996 1441.44 59.6964L1438.14 61.6006C1438.14 57.4535 1438.54 53.5603 1439.34 49.921C1440.19 46.2816 1441.48 43.0655 1443.22 40.2725C1444.95 37.4372 1447.15 35.2367 1449.82 33.671C1452.53 32.0629 1455.74 31.2589 1459.47 31.2589C1460.31 31.2589 1461.29 31.3646 1462.39 31.5762C1463.49 31.7455 1464.25 31.9359 1464.67 32.1475ZM1515.52 82.9922C1515.52 81.2995 1515.14 79.7338 1514.37 78.295C1513.65 76.8139 1512.15 75.4809 1509.87 74.296C1507.62 73.0687 1504.24 72.0108 1499.71 71.1221C1495.9 70.3181 1492.45 69.3659 1489.36 68.2657C1486.32 67.1654 1483.71 65.8324 1481.56 64.2667C1479.44 62.7009 1477.81 60.8601 1476.67 58.7442C1475.53 56.6283 1474.95 54.1527 1474.95 51.3174C1474.95 48.6091 1475.55 46.0489 1476.73 43.6368C1477.96 41.2247 1479.67 39.0876 1481.87 37.2256C1484.12 35.3637 1486.8 33.9037 1489.94 32.8458C1493.07 31.7878 1496.56 31.2589 1500.41 31.2589C1505.91 31.2589 1510.61 32.2322 1514.5 34.1788C1518.39 36.1254 1521.38 38.7279 1523.45 41.9864C1525.52 45.2025 1526.56 48.7784 1526.56 52.7139H1514.82C1514.82 50.8096 1514.25 48.9688 1513.1 47.1915C1512 45.3718 1510.37 43.8695 1508.22 42.6846C1506.1 41.4997 1503.5 40.9073 1500.41 40.9073C1497.15 40.9073 1494.51 41.4151 1492.47 42.4307C1490.49 43.404 1489.03 44.6524 1488.09 46.1758C1487.21 47.6993 1486.76 49.3074 1486.76 51.0001C1486.76 52.2696 1486.97 53.4122 1487.4 54.4278C1487.86 55.4011 1488.67 56.3109 1489.81 57.1573C1490.95 57.9613 1492.56 58.723 1494.63 59.4424C1496.71 60.1618 1499.35 60.8812 1502.57 61.6006C1508.2 62.8702 1512.83 64.3936 1516.47 66.171C1520.11 67.9483 1522.82 70.1277 1524.59 72.709C1526.37 75.2904 1527.26 78.4219 1527.26 82.1036C1527.26 85.1081 1526.62 87.8588 1525.36 90.3555C1524.13 92.8523 1522.33 95.0105 1519.96 96.8301C1517.63 98.6075 1514.84 100.004 1511.58 101.02C1508.36 101.993 1504.75 102.48 1500.73 102.48C1494.67 102.48 1489.55 101.4 1485.36 99.2422C1481.18 97.084 1478 94.2911 1475.84 90.8633C1473.69 87.4356 1472.61 83.8174 1472.61 80.0089H1484.41C1484.58 83.225 1485.51 85.7852 1487.21 87.6895C1488.9 89.5515 1490.97 90.8845 1493.43 91.6885C1495.88 92.4503 1498.31 92.8311 1500.73 92.8311C1503.94 92.8311 1506.63 92.4079 1508.79 91.5616C1510.99 90.7152 1512.66 89.5515 1513.8 88.0704C1514.95 86.5893 1515.52 84.8965 1515.52 82.9922Z" fill="black"/>
<path d="M809.594 227.82H821.781C821.146 233.66 819.475 238.886 816.766 243.499C814.058 248.112 810.228 251.772 805.277 254.481C800.326 257.147 794.148 258.48 786.742 258.48C781.325 258.48 776.395 257.464 771.952 255.433C767.551 253.401 763.763 250.524 760.59 246.8C757.416 243.034 754.961 238.527 753.226 233.279C751.534 227.99 750.687 222.107 750.687 215.633V206.429C750.687 199.954 751.534 194.093 753.226 188.846C754.961 183.556 757.437 179.028 760.653 175.262C763.912 171.496 767.826 168.597 772.396 166.565C776.967 164.534 782.108 163.519 787.821 163.519C794.803 163.519 800.707 164.83 805.531 167.454C810.355 170.078 814.1 173.717 816.766 178.372C819.475 182.985 821.146 188.338 821.781 194.432H809.594C809.001 190.115 807.901 186.412 806.293 183.323C804.685 180.192 802.399 177.78 799.437 176.087C796.475 174.394 792.603 173.548 787.821 173.548C783.716 173.548 780.098 174.331 776.967 175.897C773.877 177.462 771.275 179.684 769.159 182.562C767.085 185.439 765.52 188.888 764.462 192.908C763.404 196.928 762.875 201.393 762.875 206.302V215.633C762.875 220.161 763.34 224.414 764.271 228.392C765.245 232.37 766.705 235.861 768.651 238.865C770.598 241.87 773.073 244.24 776.078 245.975C779.082 247.667 782.637 248.514 786.742 248.514C791.947 248.514 796.094 247.689 799.183 246.038C802.273 244.388 804.6 242.018 806.166 238.929C807.774 235.84 808.916 232.137 809.594 227.82ZM877.196 245.467V210.11C877.196 207.402 876.646 205.053 875.546 203.065C874.488 201.033 872.88 199.468 870.721 198.367C868.563 197.267 865.897 196.717 862.723 196.717C859.761 196.717 857.159 197.225 854.916 198.24C852.715 199.256 850.98 200.589 849.711 202.239C848.483 203.89 847.87 205.667 847.87 207.571H836.127C836.127 205.117 836.761 202.684 838.031 200.272C839.301 197.859 841.12 195.68 843.49 193.733C845.902 191.745 848.78 190.179 852.123 189.036C855.508 187.851 859.274 187.259 863.422 187.259C868.415 187.259 872.816 188.105 876.625 189.798C880.476 191.491 883.48 194.051 885.638 197.479C887.839 200.864 888.939 205.117 888.939 210.237V242.23C888.939 244.515 889.13 246.948 889.51 249.529C889.934 252.111 890.547 254.332 891.351 256.194V257.21H879.1C878.508 255.856 878.042 254.057 877.704 251.815C877.365 249.529 877.196 247.413 877.196 245.467ZM879.227 215.569L879.354 223.821H867.484C864.141 223.821 861.158 224.096 858.534 224.647C855.91 225.154 853.71 225.937 851.932 226.995C850.155 228.053 848.801 229.386 847.87 230.994C846.939 232.56 846.473 234.401 846.473 236.517C846.473 238.675 846.96 240.643 847.933 242.42C848.907 244.197 850.367 245.615 852.313 246.673C854.302 247.689 856.735 248.196 859.613 248.196C863.21 248.196 866.384 247.435 869.135 245.911C871.885 244.388 874.065 242.526 875.673 240.325C877.323 238.125 878.212 235.988 878.339 233.914L883.353 239.564C883.057 241.341 882.253 243.309 880.941 245.467C879.629 247.625 877.873 249.699 875.673 251.688C873.514 253.634 870.933 255.263 867.928 256.575C864.966 257.845 861.623 258.48 857.899 258.48C853.244 258.48 849.161 257.57 845.648 255.75C842.178 253.93 839.47 251.497 837.523 248.45C835.619 245.361 834.667 241.912 834.667 238.104C834.667 234.422 835.386 231.185 836.825 228.392C838.264 225.556 840.337 223.208 843.046 221.346C845.754 219.441 849.012 218.003 852.821 217.029C856.63 216.056 860.883 215.569 865.58 215.569H879.227ZM919.154 203.191V257.21H907.411V188.528H918.519L919.154 203.191ZM916.361 220.267L911.473 220.076C911.516 215.379 912.214 211.041 913.568 207.064C914.922 203.043 916.827 199.552 919.281 196.59C921.735 193.628 924.655 191.343 928.041 189.734C931.469 188.084 935.256 187.259 939.403 187.259C942.788 187.259 945.835 187.724 948.544 188.655C951.252 189.544 953.558 190.983 955.463 192.972C957.409 194.961 958.89 197.542 959.906 200.716C960.922 203.847 961.429 207.677 961.429 212.205V257.21H949.623V212.078C949.623 208.481 949.094 205.604 948.036 203.445C946.978 201.245 945.433 199.658 943.402 198.685C941.371 197.669 938.874 197.161 935.912 197.161C932.992 197.161 930.326 197.775 927.914 199.002C925.544 200.229 923.492 201.922 921.757 204.08C920.064 206.238 918.731 208.714 917.758 211.507C916.827 214.258 916.361 217.177 916.361 220.267ZM1019.76 245.467V210.11C1019.76 207.402 1019.21 205.053 1018.11 203.065C1017.06 201.033 1015.45 199.468 1013.29 198.367C1011.13 197.267 1008.47 196.717 1005.29 196.717C1002.33 196.717 999.727 197.225 997.484 198.24C995.284 199.256 993.549 200.589 992.279 202.239C991.052 203.89 990.438 205.667 990.438 207.571H978.695C978.695 205.117 979.33 202.684 980.599 200.272C981.869 197.859 983.689 195.68 986.058 193.733C988.47 191.745 991.348 190.179 994.691 189.036C998.077 187.851 1001.84 187.259 1005.99 187.259C1010.98 187.259 1015.38 188.105 1019.19 189.798C1023.04 191.491 1026.05 194.051 1028.21 197.479C1030.41 200.864 1031.51 205.117 1031.51 210.237V242.23C1031.51 244.515 1031.7 246.948 1032.08 249.529C1032.5 252.111 1033.12 254.332 1033.92 256.194V257.21H1021.67C1021.08 255.856 1020.61 254.057 1020.27 251.815C1019.93 249.529 1019.76 247.413 1019.76 245.467ZM1021.8 215.569L1021.92 223.821H1010.05C1006.71 223.821 1003.73 224.096 1001.1 224.647C998.479 225.154 996.278 225.937 994.501 226.995C992.723 228.053 991.369 229.386 990.438 230.994C989.507 232.56 989.042 234.401 989.042 236.517C989.042 238.675 989.528 240.643 990.502 242.42C991.475 244.197 992.935 245.615 994.882 246.673C996.871 247.689 999.304 248.196 1002.18 248.196C1005.78 248.196 1008.95 247.435 1011.7 245.911C1014.45 244.388 1016.63 242.526 1018.24 240.325C1019.89 238.125 1020.78 235.988 1020.91 233.914L1025.92 239.564C1025.63 241.341 1024.82 243.309 1023.51 245.467C1022.2 247.625 1020.44 249.699 1018.24 251.688C1016.08 253.634 1013.5 255.263 1010.5 256.575C1007.53 257.845 1004.19 258.48 1000.47 258.48C995.813 258.48 991.729 257.57 988.217 255.75C984.747 253.93 982.038 251.497 980.092 248.45C978.187 245.361 977.235 241.912 977.235 238.104C977.235 234.422 977.955 231.185 979.393 228.392C980.832 225.556 982.906 223.208 985.614 221.346C988.322 219.441 991.581 218.003 995.389 217.029C999.198 216.056 1003.45 215.569 1008.15 215.569H1021.8ZM1093.27 243.88V159.71H1105.08V257.21H1094.29L1093.27 243.88ZM1047.06 223.631V222.298C1047.06 217.051 1047.69 212.29 1048.96 208.016C1050.28 203.699 1052.12 199.996 1054.49 196.907C1056.9 193.818 1059.75 191.448 1063.06 189.798C1066.4 188.105 1070.12 187.259 1074.23 187.259C1078.54 187.259 1082.31 188.021 1085.53 189.544C1088.78 191.025 1091.54 193.204 1093.78 196.082C1096.06 198.917 1097.86 202.345 1099.17 206.365C1100.49 210.385 1101.4 214.935 1101.9 220.013V225.853C1101.44 230.888 1100.53 235.416 1099.17 239.437C1097.86 243.457 1096.06 246.885 1093.78 249.72C1091.54 252.555 1088.78 254.734 1085.53 256.258C1082.27 257.739 1078.46 258.48 1074.1 258.48C1070.08 258.48 1066.4 257.612 1063.06 255.877C1059.75 254.142 1056.9 251.709 1054.49 248.577C1052.12 245.446 1050.28 241.764 1048.96 237.532C1047.69 233.258 1047.06 228.624 1047.06 223.631ZM1058.87 222.298V223.631C1058.87 227.059 1059.2 230.275 1059.88 233.279C1060.6 236.284 1061.7 238.929 1063.18 241.214C1064.66 243.499 1066.55 245.298 1068.83 246.609C1071.12 247.879 1073.85 248.514 1077.02 248.514C1080.91 248.514 1084.11 247.689 1086.61 246.038C1089.14 244.388 1091.18 242.208 1092.7 239.5C1094.22 236.792 1095.41 233.851 1096.25 230.677V215.379C1095.75 213.051 1095.01 210.809 1094.03 208.65C1093.1 206.45 1091.87 204.503 1090.35 202.811C1088.87 201.076 1087.03 199.7 1084.83 198.685C1082.67 197.669 1080.11 197.161 1077.15 197.161C1073.93 197.161 1071.16 197.838 1068.83 199.192C1066.55 200.504 1064.66 202.324 1063.18 204.651C1061.7 206.937 1060.6 209.603 1059.88 212.649C1059.2 215.654 1058.87 218.87 1058.87 222.298ZM1163.86 245.467V210.11C1163.86 207.402 1163.31 205.053 1162.21 203.065C1161.15 201.033 1159.54 199.468 1157.38 198.367C1155.22 197.267 1152.56 196.717 1149.38 196.717C1146.42 196.717 1143.82 197.225 1141.58 198.24C1139.38 199.256 1137.64 200.589 1136.37 202.239C1135.14 203.89 1134.53 205.667 1134.53 207.571H1122.79C1122.79 205.117 1123.42 202.684 1124.69 200.272C1125.96 197.859 1127.78 195.68 1130.15 193.733C1132.56 191.745 1135.44 190.179 1138.78 189.036C1142.17 187.851 1145.93 187.259 1150.08 187.259C1155.08 187.259 1159.48 188.105 1163.28 189.798C1167.14 191.491 1170.14 194.051 1172.3 197.479C1174.5 200.864 1175.6 205.117 1175.6 210.237V242.23C1175.6 244.515 1175.79 246.948 1176.17 249.529C1176.59 252.111 1177.21 254.332 1178.01 256.194V257.21H1165.76C1165.17 255.856 1164.7 254.057 1164.36 251.815C1164.03 249.529 1163.86 247.413 1163.86 245.467ZM1165.89 215.569L1166.01 223.821H1154.14C1150.8 223.821 1147.82 224.096 1145.19 224.647C1142.57 225.154 1140.37 225.937 1138.59 226.995C1136.82 228.053 1135.46 229.386 1134.53 230.994C1133.6 232.56 1133.13 234.401 1133.13 236.517C1133.13 238.675 1133.62 240.643 1134.59 242.42C1135.57 244.197 1137.03 245.615 1138.97 246.673C1140.96 247.689 1143.4 248.196 1146.27 248.196C1149.87 248.196 1153.04 247.435 1155.79 245.911C1158.55 244.388 1160.72 242.526 1162.33 240.325C1163.98 238.125 1164.87 235.988 1165 233.914L1170.01 239.564C1169.72 241.341 1168.91 243.309 1167.6 245.467C1166.29 247.625 1164.53 249.699 1162.33 251.688C1160.17 253.634 1157.59 255.263 1154.59 256.575C1151.63 257.845 1148.28 258.48 1144.56 258.48C1139.9 258.48 1135.82 257.57 1132.31 255.75C1128.84 253.93 1126.13 251.497 1124.18 248.45C1122.28 245.361 1121.33 241.912 1121.33 238.104C1121.33 234.422 1122.05 231.185 1123.49 228.392C1124.92 225.556 1127 223.208 1129.71 221.346C1132.41 219.441 1135.67 218.003 1139.48 217.029C1143.29 216.056 1147.54 215.569 1152.24 215.569H1165.89Z" fill="black"/>
<path d="M788.011 328.977L757.416 413.21H744.911L780.14 320.788H788.202L788.011 328.977ZM813.656 413.21L782.997 328.977L782.806 320.788H790.868L826.224 413.21H813.656ZM812.069 378.996V389.025H760.145V378.996H812.069ZM854.344 413.21H842.601V337.292C842.601 332.341 843.49 328.173 845.267 324.787C847.087 321.359 849.69 318.778 853.075 317.043C856.46 315.266 860.481 314.377 865.135 314.377C866.49 314.377 867.844 314.462 869.198 314.631C870.594 314.8 871.949 315.054 873.26 315.393L872.626 324.978C871.737 324.766 870.721 324.618 869.579 324.533C868.479 324.449 867.378 324.406 866.278 324.406C863.781 324.406 861.623 324.914 859.803 325.93C858.026 326.903 856.672 328.342 855.741 330.246C854.81 332.15 854.344 334.499 854.344 337.292V413.21ZM868.944 344.528V353.542H831.747V344.528H868.944ZM899.54 413.21H887.797V337.292C887.797 332.341 888.685 328.173 890.463 324.787C892.282 321.359 894.885 318.778 898.27 317.043C901.656 315.266 905.676 314.377 910.331 314.377C911.685 314.377 913.039 314.462 914.393 314.631C915.79 314.8 917.144 315.054 918.456 315.393L917.821 324.978C916.932 324.766 915.917 324.618 914.774 324.533C913.674 324.449 912.574 324.406 911.473 324.406C908.977 324.406 906.818 324.914 904.999 325.93C903.221 326.903 901.867 328.342 900.936 330.246C900.005 332.15 899.54 334.499 899.54 337.292V413.21ZM914.139 344.528V353.542H876.942V344.528H914.139ZM967.714 401.467V366.11C967.714 363.402 967.163 361.053 966.063 359.065C965.005 357.033 963.397 355.468 961.239 354.367C959.081 353.267 956.415 352.717 953.241 352.717C950.279 352.717 947.676 353.225 945.433 354.24C943.233 355.256 941.498 356.589 940.228 358.239C939.001 359.89 938.387 361.667 938.387 363.571H926.644C926.644 361.117 927.279 358.684 928.549 356.272C929.818 353.859 931.638 351.68 934.008 349.733C936.42 347.745 939.297 346.179 942.64 345.036C946.026 343.851 949.792 343.259 953.939 343.259C958.933 343.259 963.334 344.105 967.142 345.798C970.993 347.491 973.998 350.051 976.156 353.479C978.357 356.864 979.457 361.117 979.457 366.237V398.23C979.457 400.515 979.647 402.948 980.028 405.529C980.451 408.111 981.065 410.332 981.869 412.194V413.21H969.618C969.025 411.856 968.56 410.057 968.221 407.815C967.883 405.529 967.714 403.413 967.714 401.467ZM969.745 371.569L969.872 379.821H958.002C954.659 379.821 951.675 380.096 949.052 380.647C946.428 381.154 944.227 381.937 942.45 382.995C940.673 384.053 939.318 385.386 938.387 386.994C937.456 388.56 936.991 390.401 936.991 392.517C936.991 394.675 937.478 396.643 938.451 398.42C939.424 400.197 940.884 401.615 942.831 402.673C944.82 403.689 947.253 404.196 950.131 404.196C953.728 404.196 956.901 403.435 959.652 401.911C962.403 400.388 964.582 398.526 966.19 396.325C967.841 394.125 968.729 391.988 968.856 389.914L973.871 395.564C973.575 397.341 972.771 399.309 971.459 401.467C970.147 403.625 968.391 405.699 966.19 407.688C964.032 409.634 961.451 411.263 958.446 412.575C955.484 413.845 952.141 414.48 948.417 414.48C943.762 414.48 939.678 413.57 936.166 411.75C932.696 409.93 929.987 407.497 928.041 404.45C926.136 401.361 925.184 397.912 925.184 394.104C925.184 390.422 925.904 387.185 927.343 384.392C928.781 381.556 930.855 379.208 933.563 377.346C936.272 375.441 939.53 374.003 943.339 373.029C947.147 372.056 951.4 371.569 956.097 371.569H969.745ZM1010.69 344.528V413.21H998.881V344.528H1010.69ZM997.992 326.311C997.992 324.406 998.563 322.798 999.706 321.486C1000.89 320.175 1002.63 319.519 1004.91 319.519C1007.15 319.519 1008.87 320.175 1010.05 321.486C1011.28 322.798 1011.89 324.406 1011.89 326.311C1011.89 328.13 1011.28 329.696 1010.05 331.008C1008.87 332.277 1007.15 332.912 1004.91 332.912C1002.63 332.912 1000.89 332.277 999.706 331.008C998.563 329.696 997.992 328.13 997.992 326.311ZM1041.28 355.319V413.21H1029.54V344.528H1040.97L1041.28 355.319ZM1062.74 344.148L1062.67 355.065C1061.7 354.854 1060.77 354.727 1059.88 354.685C1059.04 354.6 1058.06 354.558 1056.96 354.558C1054.25 354.558 1051.86 354.981 1049.79 355.827C1047.72 356.674 1045.96 357.858 1044.52 359.382C1043.08 360.905 1041.94 362.725 1041.09 364.841C1040.29 366.914 1039.76 369.2 1039.51 371.696L1036.2 373.601C1036.2 369.454 1036.61 365.56 1037.41 361.921C1038.26 358.282 1039.55 355.065 1041.28 352.273C1043.02 349.437 1045.22 347.237 1047.88 345.671C1050.59 344.063 1053.81 343.259 1057.53 343.259C1058.38 343.259 1059.35 343.365 1060.45 343.576C1061.55 343.746 1062.31 343.936 1062.74 344.148ZM1100.82 414.48C1096.04 414.48 1091.7 413.676 1087.81 412.067C1083.96 410.417 1080.64 408.111 1077.85 405.148C1075.09 402.186 1072.98 398.674 1071.5 394.611C1070.02 390.549 1069.28 386.106 1069.28 381.281V378.615C1069.28 373.029 1070.1 368.057 1071.75 363.698C1073.4 359.297 1075.64 355.573 1078.48 352.526C1081.32 349.48 1084.53 347.173 1088.13 345.607C1091.73 344.042 1095.45 343.259 1099.3 343.259C1104.21 343.259 1108.44 344.105 1112 345.798C1115.59 347.491 1118.53 349.86 1120.82 352.907C1123.1 355.912 1124.8 359.467 1125.9 363.571C1127 367.634 1127.55 372.077 1127.55 376.901V382.17H1076.26V372.585H1115.8V371.696C1115.64 368.649 1115 365.687 1113.9 362.81C1112.84 359.932 1111.15 357.562 1108.82 355.7C1106.49 353.838 1103.32 352.907 1099.3 352.907C1096.63 352.907 1094.18 353.479 1091.94 354.621C1089.69 355.721 1087.77 357.372 1086.16 359.572C1084.55 361.773 1083.3 364.46 1082.42 367.634C1081.53 370.808 1081.08 374.468 1081.08 378.615V381.281C1081.08 384.54 1081.53 387.608 1082.42 390.485C1083.35 393.321 1084.68 395.817 1086.41 397.976C1088.19 400.134 1090.33 401.827 1092.83 403.054C1095.36 404.281 1098.24 404.895 1101.46 404.895C1105.61 404.895 1109.12 404.048 1112 402.356C1114.87 400.663 1117.39 398.399 1119.55 395.564L1126.66 401.213C1125.18 403.456 1123.29 405.593 1121.01 407.624C1118.72 409.655 1115.91 411.306 1112.57 412.575C1109.27 413.845 1105.35 414.48 1100.82 414.48ZM1181.25 394.992C1181.25 393.3 1180.87 391.734 1180.11 390.295C1179.39 388.814 1177.88 387.481 1175.6 386.296C1173.36 385.069 1169.97 384.011 1165.44 383.122C1161.63 382.318 1158.19 381.366 1155.1 380.266C1152.05 379.165 1149.45 377.832 1147.29 376.267C1145.17 374.701 1143.54 372.86 1142.4 370.744C1141.26 368.628 1140.69 366.153 1140.69 363.317C1140.69 360.609 1141.28 358.049 1142.46 355.637C1143.69 353.225 1145.41 351.088 1147.61 349.226C1149.85 347.364 1152.54 345.904 1155.67 344.846C1158.8 343.788 1162.29 343.259 1166.14 343.259C1171.64 343.259 1176.34 344.232 1180.23 346.179C1184.13 348.125 1187.11 350.728 1189.18 353.986C1191.26 357.203 1192.29 360.778 1192.29 364.714H1180.55C1180.55 362.81 1179.98 360.969 1178.84 359.191C1177.74 357.372 1176.11 355.87 1173.95 354.685C1171.83 353.5 1169.23 352.907 1166.14 352.907C1162.88 352.907 1160.24 353.415 1158.21 354.431C1156.22 355.404 1154.76 356.652 1153.83 358.176C1152.94 359.699 1152.49 361.307 1152.49 363C1152.49 364.27 1152.71 365.412 1153.13 366.428C1153.59 367.401 1154.4 368.311 1155.54 369.157C1156.68 369.961 1158.29 370.723 1160.36 371.442C1162.44 372.162 1165.08 372.881 1168.3 373.601C1173.93 374.87 1178.56 376.394 1182.2 378.171C1185.84 379.948 1188.55 382.128 1190.33 384.709C1192.1 387.29 1192.99 390.422 1192.99 394.104C1192.99 397.108 1192.36 399.859 1191.09 402.356C1189.86 404.852 1188.06 407.01 1185.69 408.83C1183.36 410.607 1180.57 412.004 1177.31 413.02C1174.1 413.993 1170.48 414.48 1166.46 414.48C1160.41 414.48 1155.29 413.4 1151.1 411.242C1146.91 409.084 1143.73 406.291 1141.58 402.863C1139.42 399.436 1138.34 395.817 1138.34 392.009H1150.15C1150.31 395.225 1151.25 397.785 1152.94 399.69C1154.63 401.551 1156.7 402.885 1159.16 403.689C1161.61 404.45 1164.05 404.831 1166.46 404.831C1169.67 404.831 1172.36 404.408 1174.52 403.562C1176.72 402.715 1178.39 401.551 1179.53 400.07C1180.68 398.589 1181.25 396.897 1181.25 394.992ZM1252.34 358.176V413.21H1240.54V344.528H1251.71L1252.34 358.176ZM1249.93 376.267L1244.47 376.076C1244.51 371.379 1245.13 367.041 1246.31 363.064C1247.5 359.043 1249.25 355.552 1251.58 352.59C1253.91 349.628 1256.81 347.343 1260.28 345.734C1263.75 344.084 1267.77 343.259 1272.34 343.259C1275.55 343.259 1278.52 343.724 1281.22 344.655C1283.93 345.544 1286.28 346.962 1288.27 348.908C1290.26 350.855 1291.8 353.352 1292.9 356.398C1294 359.445 1294.55 363.127 1294.55 367.443V413.21H1282.81V368.015C1282.81 364.418 1282.2 361.54 1280.97 359.382C1279.79 357.224 1278.09 355.658 1275.89 354.685C1273.69 353.669 1271.11 353.161 1268.15 353.161C1264.68 353.161 1261.78 353.775 1259.45 355.002C1257.12 356.229 1255.26 357.922 1253.87 360.08C1252.47 362.238 1251.45 364.714 1250.82 367.507C1250.23 370.258 1249.93 373.177 1249.93 376.267ZM1294.43 369.792L1286.56 372.204C1286.6 368.438 1287.21 364.82 1288.4 361.35C1289.62 357.88 1291.38 354.79 1293.67 352.082C1295.99 349.374 1298.85 347.237 1302.24 345.671C1305.62 344.063 1309.49 343.259 1313.85 343.259C1317.53 343.259 1320.79 343.746 1323.63 344.719C1326.5 345.692 1328.92 347.194 1330.86 349.226C1332.85 351.215 1334.35 353.775 1335.37 356.906C1336.39 360.038 1336.89 363.762 1336.89 368.078V413.21H1325.09V367.951C1325.09 364.1 1324.47 361.117 1323.25 359.001C1322.06 356.843 1320.37 355.341 1318.17 354.494C1316.01 353.606 1313.43 353.161 1310.42 353.161C1307.84 353.161 1305.56 353.606 1303.57 354.494C1301.58 355.383 1299.91 356.61 1298.55 358.176C1297.2 359.699 1296.16 361.455 1295.44 363.444C1294.77 365.433 1294.43 367.549 1294.43 369.792ZM1351.56 379.631V378.171C1351.56 373.22 1352.28 368.628 1353.71 364.397C1355.15 360.122 1357.23 356.42 1359.94 353.288C1362.64 350.114 1365.92 347.66 1369.77 345.925C1373.63 344.148 1377.94 343.259 1382.72 343.259C1387.55 343.259 1391.89 344.148 1395.74 345.925C1399.63 347.66 1402.93 350.114 1405.64 353.288C1408.39 356.42 1410.48 360.122 1411.92 364.397C1413.36 368.628 1414.08 373.22 1414.08 378.171V379.631C1414.08 384.582 1413.36 389.174 1411.92 393.405C1410.48 397.637 1408.39 401.34 1405.64 404.514C1402.93 407.645 1399.65 410.1 1395.8 411.877C1391.99 413.612 1387.67 414.48 1382.85 414.48C1378.03 414.48 1373.69 413.612 1369.84 411.877C1365.99 410.1 1362.69 407.645 1359.94 404.514C1357.23 401.34 1355.15 397.637 1353.71 393.405C1352.28 389.174 1351.56 384.582 1351.56 379.631ZM1363.3 378.171V379.631C1363.3 383.059 1363.7 386.296 1364.51 389.343C1365.31 392.347 1366.52 395.013 1368.12 397.341C1369.77 399.668 1371.83 401.509 1374.28 402.863C1376.74 404.175 1379.59 404.831 1382.85 404.831C1386.07 404.831 1388.88 404.175 1391.29 402.863C1393.75 401.509 1395.78 399.668 1397.39 397.341C1398.99 395.013 1400.2 392.347 1401 389.343C1401.85 386.296 1402.27 383.059 1402.27 379.631V378.171C1402.27 374.786 1401.85 371.591 1401 368.586C1400.2 365.539 1398.97 362.852 1397.32 360.524C1395.71 358.155 1393.68 356.293 1391.23 354.939C1388.82 353.584 1385.98 352.907 1382.72 352.907C1379.51 352.907 1376.67 353.584 1374.22 354.939C1371.81 356.293 1369.77 358.155 1368.12 360.524C1366.52 362.852 1365.31 365.539 1364.51 368.586C1363.7 371.591 1363.3 374.786 1363.3 378.171ZM1440.55 359.191V413.21H1428.81V344.528H1439.92L1440.55 359.191ZM1437.76 376.267L1432.87 376.076C1432.91 371.379 1433.61 367.041 1434.96 363.064C1436.32 359.043 1438.22 355.552 1440.68 352.59C1443.13 349.628 1446.05 347.343 1449.44 345.734C1452.86 344.084 1456.65 343.259 1460.8 343.259C1464.18 343.259 1467.23 343.724 1469.94 344.655C1472.65 345.544 1474.95 346.983 1476.86 348.972C1478.81 350.961 1480.29 353.542 1481.3 356.716C1482.32 359.847 1482.83 363.677 1482.83 368.205V413.21H1471.02V368.078C1471.02 364.481 1470.49 361.604 1469.43 359.445C1468.37 357.245 1466.83 355.658 1464.8 354.685C1462.77 353.669 1460.27 353.161 1457.31 353.161C1454.39 353.161 1451.72 353.775 1449.31 355.002C1446.94 356.229 1444.89 357.922 1443.15 360.08C1441.46 362.238 1440.13 364.714 1439.15 367.507C1438.22 370.258 1437.76 373.177 1437.76 376.267ZM1543.95 399.88V315.71H1555.76V413.21H1544.97L1543.95 399.88ZM1497.74 379.631V378.298C1497.74 373.051 1498.38 368.29 1499.65 364.016C1500.96 359.699 1502.8 355.996 1505.17 352.907C1507.58 349.818 1510.44 347.448 1513.74 345.798C1517.08 344.105 1520.81 343.259 1524.91 343.259C1529.23 343.259 1532.99 344.021 1536.21 345.544C1539.47 347.025 1542.22 349.204 1544.46 352.082C1546.75 354.917 1548.55 358.345 1549.86 362.365C1551.17 366.385 1552.08 370.935 1552.59 376.013V381.853C1552.12 386.888 1551.21 391.416 1549.86 395.437C1548.55 399.457 1546.75 402.885 1544.46 405.72C1542.22 408.555 1539.47 410.734 1536.21 412.258C1532.95 413.739 1529.14 414.48 1524.78 414.48C1520.76 414.48 1517.08 413.612 1513.74 411.877C1510.44 410.142 1507.58 407.709 1505.17 404.577C1502.8 401.446 1500.96 397.764 1499.65 393.532C1498.38 389.258 1497.74 384.624 1497.74 379.631ZM1509.55 378.298V379.631C1509.55 383.059 1509.89 386.275 1510.57 389.279C1511.28 392.284 1512.38 394.929 1513.87 397.214C1515.35 399.499 1517.23 401.298 1519.52 402.609C1521.8 403.879 1524.53 404.514 1527.7 404.514C1531.6 404.514 1534.79 403.689 1537.29 402.038C1539.83 400.388 1541.86 398.208 1543.38 395.5C1544.91 392.792 1546.09 389.851 1546.94 386.677V371.379C1546.43 369.051 1545.69 366.809 1544.72 364.65C1543.78 362.45 1542.56 360.503 1541.03 358.811C1539.55 357.076 1537.71 355.7 1535.51 354.685C1533.35 353.669 1530.79 353.161 1527.83 353.161C1524.61 353.161 1521.84 353.838 1519.52 355.192C1517.23 356.504 1515.35 358.324 1513.87 360.651C1512.38 362.937 1511.28 365.603 1510.57 368.649C1509.89 371.654 1509.55 374.87 1509.55 378.298ZM1586.8 344.528V413.21H1574.99V344.528H1586.8ZM1574.11 326.311C1574.11 324.406 1574.68 322.798 1575.82 321.486C1577 320.175 1578.74 319.519 1581.02 319.519C1583.27 319.519 1584.98 320.175 1586.17 321.486C1587.39 322.798 1588.01 324.406 1588.01 326.311C1588.01 328.13 1587.39 329.696 1586.17 331.008C1584.98 332.277 1583.27 332.912 1581.02 332.912C1578.74 332.912 1577 332.277 1575.82 331.008C1574.68 329.696 1574.11 328.13 1574.11 326.311ZM1646.15 401.467V366.11C1646.15 363.402 1645.6 361.053 1644.5 359.065C1643.44 357.033 1641.83 355.468 1639.68 354.367C1637.52 353.267 1634.85 352.717 1631.68 352.717C1628.72 352.717 1626.11 353.225 1623.87 354.24C1621.67 355.256 1619.94 356.589 1618.67 358.239C1617.44 359.89 1616.82 361.667 1616.82 363.571H1605.08C1605.08 361.117 1605.72 358.684 1606.99 356.272C1608.26 353.859 1610.08 351.68 1612.45 349.733C1614.86 347.745 1617.73 346.179 1621.08 345.036C1624.46 343.851 1628.23 343.259 1632.38 343.259C1637.37 343.259 1641.77 344.105 1645.58 345.798C1649.43 347.491 1652.44 350.051 1654.59 353.479C1656.79 356.864 1657.89 361.117 1657.89 366.237V398.23C1657.89 400.515 1658.08 402.948 1658.47 405.529C1658.89 408.111 1659.5 410.332 1660.31 412.194V413.21H1648.06C1647.46 411.856 1647 410.057 1646.66 407.815C1646.32 405.529 1646.15 403.413 1646.15 401.467ZM1648.18 371.569L1648.31 379.821H1636.44C1633.1 379.821 1630.11 380.096 1627.49 380.647C1624.87 381.154 1622.66 381.937 1620.89 382.995C1619.11 384.053 1617.76 385.386 1616.82 386.994C1615.89 388.56 1615.43 390.401 1615.43 392.517C1615.43 394.675 1615.92 396.643 1616.89 398.42C1617.86 400.197 1619.32 401.615 1621.27 402.673C1623.26 403.689 1625.69 404.196 1628.57 404.196C1632.17 404.196 1635.34 403.435 1638.09 401.911C1640.84 400.388 1643.02 398.526 1644.63 396.325C1646.28 394.125 1647.17 391.988 1647.29 389.914L1652.31 395.564C1652.01 397.341 1651.21 399.309 1649.9 401.467C1648.58 403.625 1646.83 405.699 1644.63 407.688C1642.47 409.634 1639.89 411.263 1636.88 412.575C1633.92 413.845 1630.58 414.48 1626.85 414.48C1622.2 414.48 1618.12 413.57 1614.6 411.75C1611.13 409.93 1608.42 407.497 1606.48 404.45C1604.57 401.361 1603.62 397.912 1603.62 394.104C1603.62 390.422 1604.34 387.185 1605.78 384.392C1607.22 381.556 1609.29 379.208 1612 377.346C1614.71 375.441 1617.97 374.003 1621.78 373.029C1625.58 372.056 1629.84 371.569 1634.53 371.569H1648.18ZM1689.12 315.71V413.21H1677.32V315.71H1689.12ZM1736.48 414.48C1731.7 414.48 1727.36 413.676 1723.47 412.067C1719.61 410.417 1716.29 408.111 1713.5 405.148C1710.75 402.186 1708.63 398.674 1707.15 394.611C1705.67 390.549 1704.93 386.106 1704.93 381.281V378.615C1704.93 373.029 1705.76 368.057 1707.41 363.698C1709.06 359.297 1711.3 355.573 1714.13 352.526C1716.97 349.48 1720.19 347.173 1723.78 345.607C1727.38 344.042 1731.1 343.259 1734.95 343.259C1739.86 343.259 1744.1 344.105 1747.65 345.798C1751.25 347.491 1754.19 349.86 1756.47 352.907C1758.76 355.912 1760.45 359.467 1761.55 363.571C1762.65 367.634 1763.2 372.077 1763.2 376.901V382.17H1711.91V372.585H1751.46V371.696C1751.29 368.649 1750.65 365.687 1749.55 362.81C1748.5 359.932 1746.8 357.562 1744.48 355.7C1742.15 353.838 1738.98 352.907 1734.95 352.907C1732.29 352.907 1729.83 353.479 1727.59 354.621C1725.35 355.721 1723.42 357.372 1721.82 359.572C1720.21 361.773 1718.96 364.46 1718.07 367.634C1717.18 370.808 1716.74 374.468 1716.74 378.615V381.281C1716.74 384.54 1717.18 387.608 1718.07 390.485C1719 393.321 1720.33 395.817 1722.07 397.976C1723.85 400.134 1725.98 401.827 1728.48 403.054C1731.02 404.281 1733.9 404.895 1737.11 404.895C1741.26 404.895 1744.77 404.048 1747.65 402.356C1750.53 400.663 1753.05 398.399 1755.2 395.564L1762.31 401.213C1760.83 403.456 1758.95 405.593 1756.66 407.624C1754.38 409.655 1751.56 411.306 1748.22 412.575C1744.92 413.845 1741.01 414.48 1736.48 414.48ZM1816.9 394.992C1816.9 393.3 1816.52 391.734 1815.76 390.295C1815.04 388.814 1813.54 387.481 1811.25 386.296C1809.01 385.069 1805.63 384.011 1801.1 383.122C1797.29 382.318 1793.84 381.366 1790.75 380.266C1787.7 379.165 1785.1 377.832 1782.94 376.267C1780.83 374.701 1779.2 372.86 1778.06 370.744C1776.91 368.628 1776.34 366.153 1776.34 363.317C1776.34 360.609 1776.93 358.049 1778.12 355.637C1779.35 353.225 1781.06 351.088 1783.26 349.226C1785.5 347.364 1788.19 345.904 1791.32 344.846C1794.45 343.788 1797.94 343.259 1801.8 343.259C1807.3 343.259 1811.99 344.232 1815.89 346.179C1819.78 348.125 1822.76 350.728 1824.84 353.986C1826.91 357.203 1827.95 360.778 1827.95 364.714H1816.2C1816.2 362.81 1815.63 360.969 1814.49 359.191C1813.39 357.372 1811.76 355.87 1809.6 354.685C1807.49 353.5 1804.88 352.907 1801.8 352.907C1798.54 352.907 1795.89 353.415 1793.86 354.431C1791.87 355.404 1790.41 356.652 1789.48 358.176C1788.59 359.699 1788.15 361.307 1788.15 363C1788.15 364.27 1788.36 365.412 1788.78 366.428C1789.25 367.401 1790.05 368.311 1791.2 369.157C1792.34 369.961 1793.95 370.723 1796.02 371.442C1798.09 372.162 1800.74 372.881 1803.95 373.601C1809.58 374.87 1814.22 376.394 1817.86 378.171C1821.49 379.948 1824.2 382.128 1825.98 384.709C1827.76 387.29 1828.65 390.422 1828.65 394.104C1828.65 397.108 1828.01 399.859 1826.74 402.356C1825.51 404.852 1823.72 407.01 1821.35 408.83C1819.02 410.607 1816.23 412.004 1812.97 413.02C1809.75 413.993 1806.13 414.48 1802.11 414.48C1796.06 414.48 1790.94 413.4 1786.75 411.242C1782.56 409.084 1779.39 406.291 1777.23 402.863C1775.07 399.436 1773.99 395.817 1773.99 392.009H1785.8C1785.97 395.225 1786.9 397.785 1788.59 399.69C1790.29 401.551 1792.36 402.885 1794.81 403.689C1797.27 404.45 1799.7 404.831 1802.11 404.831C1805.33 404.831 1808.02 404.408 1810.17 403.562C1812.38 402.715 1814.05 401.551 1815.19 400.07C1816.33 398.589 1816.9 396.897 1816.9 394.992Z" fill="black"/>
<path d="M809.594 539.82H821.781C821.146 545.66 819.475 550.886 816.766 555.499C814.058 560.112 810.228 563.772 805.277 566.481C800.326 569.147 794.148 570.48 786.742 570.48C781.325 570.48 776.395 569.464 771.952 567.433C767.551 565.401 763.763 562.524 760.59 558.8C757.416 555.034 754.961 550.527 753.226 545.279C751.534 539.99 750.687 534.107 750.687 527.633V518.429C750.687 511.954 751.534 506.093 753.226 500.846C754.961 495.556 757.437 491.028 760.653 487.262C763.912 483.496 767.826 480.597 772.396 478.565C776.967 476.534 782.108 475.519 787.821 475.519C794.803 475.519 800.707 476.83 805.531 479.454C810.355 482.078 814.1 485.717 816.766 490.372C819.475 494.985 821.146 500.338 821.781 506.432H809.594C809.001 502.115 807.901 498.412 806.293 495.323C804.685 492.192 802.399 489.78 799.437 488.087C796.475 486.394 792.603 485.548 787.821 485.548C783.716 485.548 780.098 486.331 776.967 487.897C773.877 489.462 771.275 491.684 769.159 494.562C767.085 497.439 765.52 500.888 764.462 504.908C763.404 508.928 762.875 513.393 762.875 518.302V527.633C762.875 532.161 763.34 536.414 764.271 540.392C765.245 544.37 766.705 547.861 768.651 550.865C770.598 553.87 773.073 556.24 776.078 557.975C779.082 559.667 782.637 560.514 786.742 560.514C791.947 560.514 796.094 559.689 799.183 558.038C802.273 556.388 804.6 554.018 806.166 550.929C807.774 547.84 808.916 544.137 809.594 539.82ZM877.196 557.467V522.11C877.196 519.402 876.646 517.053 875.546 515.065C874.488 513.033 872.88 511.468 870.721 510.367C868.563 509.267 865.897 508.717 862.723 508.717C859.761 508.717 857.159 509.225 854.916 510.24C852.715 511.256 850.98 512.589 849.711 514.239C848.483 515.89 847.87 517.667 847.87 519.571H836.127C836.127 517.117 836.761 514.684 838.031 512.272C839.301 509.859 841.12 507.68 843.49 505.733C845.902 503.745 848.78 502.179 852.123 501.036C855.508 499.851 859.274 499.259 863.422 499.259C868.415 499.259 872.816 500.105 876.625 501.798C880.476 503.491 883.48 506.051 885.638 509.479C887.839 512.864 888.939 517.117 888.939 522.237V554.23C888.939 556.515 889.13 558.948 889.51 561.529C889.934 564.111 890.547 566.332 891.351 568.194V569.21H879.1C878.508 567.856 878.042 566.057 877.704 563.815C877.365 561.529 877.196 559.413 877.196 557.467ZM879.227 527.569L879.354 535.821H867.484C864.141 535.821 861.158 536.096 858.534 536.647C855.91 537.154 853.71 537.937 851.932 538.995C850.155 540.053 848.801 541.386 847.87 542.994C846.939 544.56 846.473 546.401 846.473 548.517C846.473 550.675 846.96 552.643 847.933 554.42C848.907 556.197 850.367 557.615 852.313 558.673C854.302 559.689 856.735 560.196 859.613 560.196C863.21 560.196 866.384 559.435 869.135 557.911C871.885 556.388 874.065 554.526 875.673 552.325C877.323 550.125 878.212 547.988 878.339 545.914L883.353 551.564C883.057 553.341 882.253 555.309 880.941 557.467C879.629 559.625 877.873 561.699 875.673 563.688C873.514 565.634 870.933 567.263 867.928 568.575C864.966 569.845 861.623 570.48 857.899 570.48C853.244 570.48 849.161 569.57 845.648 567.75C842.178 565.93 839.47 563.497 837.523 560.45C835.619 557.361 834.667 553.912 834.667 550.104C834.667 546.422 835.386 543.185 836.825 540.392C838.264 537.556 840.337 535.208 843.046 533.346C845.754 531.441 849.012 530.003 852.821 529.029C856.63 528.056 860.883 527.569 865.58 527.569H879.227ZM919.154 515.191V569.21H907.411V500.528H918.519L919.154 515.191ZM916.361 532.267L911.473 532.076C911.516 527.379 912.214 523.041 913.568 519.064C914.922 515.043 916.827 511.552 919.281 508.59C921.735 505.628 924.655 503.343 928.041 501.734C931.469 500.084 935.256 499.259 939.403 499.259C942.788 499.259 945.835 499.724 948.544 500.655C951.252 501.544 953.558 502.983 955.463 504.972C957.409 506.961 958.89 509.542 959.906 512.716C960.922 515.847 961.429 519.677 961.429 524.205V569.21H949.623V524.078C949.623 520.481 949.094 517.604 948.036 515.445C946.978 513.245 945.433 511.658 943.402 510.685C941.371 509.669 938.874 509.161 935.912 509.161C932.992 509.161 930.326 509.775 927.914 511.002C925.544 512.229 923.492 513.922 921.757 516.08C920.064 518.238 918.731 520.714 917.758 523.507C916.827 526.258 916.361 529.177 916.361 532.267ZM1019.76 557.467V522.11C1019.76 519.402 1019.21 517.053 1018.11 515.065C1017.06 513.033 1015.45 511.468 1013.29 510.367C1011.13 509.267 1008.47 508.717 1005.29 508.717C1002.33 508.717 999.727 509.225 997.484 510.24C995.284 511.256 993.549 512.589 992.279 514.239C991.052 515.89 990.438 517.667 990.438 519.571H978.695C978.695 517.117 979.33 514.684 980.599 512.272C981.869 509.859 983.689 507.68 986.058 505.733C988.47 503.745 991.348 502.179 994.691 501.036C998.077 499.851 1001.84 499.259 1005.99 499.259C1010.98 499.259 1015.38 500.105 1019.19 501.798C1023.04 503.491 1026.05 506.051 1028.21 509.479C1030.41 512.864 1031.51 517.117 1031.51 522.237V554.23C1031.51 556.515 1031.7 558.948 1032.08 561.529C1032.5 564.111 1033.12 566.332 1033.92 568.194V569.21H1021.67C1021.08 567.856 1020.61 566.057 1020.27 563.815C1019.93 561.529 1019.76 559.413 1019.76 557.467ZM1021.8 527.569L1021.92 535.821H1010.05C1006.71 535.821 1003.73 536.096 1001.1 536.647C998.479 537.154 996.278 537.937 994.501 538.995C992.723 540.053 991.369 541.386 990.438 542.994C989.507 544.56 989.042 546.401 989.042 548.517C989.042 550.675 989.528 552.643 990.502 554.42C991.475 556.197 992.935 557.615 994.882 558.673C996.871 559.689 999.304 560.196 1002.18 560.196C1005.78 560.196 1008.95 559.435 1011.7 557.911C1014.45 556.388 1016.63 554.526 1018.24 552.325C1019.89 550.125 1020.78 547.988 1020.91 545.914L1025.92 551.564C1025.63 553.341 1024.82 555.309 1023.51 557.467C1022.2 559.625 1020.44 561.699 1018.24 563.688C1016.08 565.634 1013.5 567.263 1010.5 568.575C1007.53 569.845 1004.19 570.48 1000.47 570.48C995.813 570.48 991.729 569.57 988.217 567.75C984.747 565.93 982.038 563.497 980.092 560.45C978.187 557.361 977.235 553.912 977.235 550.104C977.235 546.422 977.955 543.185 979.393 540.392C980.832 537.556 982.906 535.208 985.614 533.346C988.322 531.441 991.581 530.003 995.389 529.029C999.198 528.056 1003.45 527.569 1008.15 527.569H1021.8ZM1093.27 555.88V471.71H1105.08V569.21H1094.29L1093.27 555.88ZM1047.06 535.631V534.298C1047.06 529.051 1047.69 524.29 1048.96 520.016C1050.28 515.699 1052.12 511.996 1054.49 508.907C1056.9 505.818 1059.75 503.448 1063.06 501.798C1066.4 500.105 1070.12 499.259 1074.23 499.259C1078.54 499.259 1082.31 500.021 1085.53 501.544C1088.78 503.025 1091.54 505.204 1093.78 508.082C1096.06 510.917 1097.86 514.345 1099.17 518.365C1100.49 522.385 1101.4 526.935 1101.9 532.013V537.853C1101.44 542.888 1100.53 547.416 1099.17 551.437C1097.86 555.457 1096.06 558.885 1093.78 561.72C1091.54 564.555 1088.78 566.734 1085.53 568.258C1082.27 569.739 1078.46 570.48 1074.1 570.48C1070.08 570.48 1066.4 569.612 1063.06 567.877C1059.75 566.142 1056.9 563.709 1054.49 560.577C1052.12 557.446 1050.28 553.764 1048.96 549.532C1047.69 545.258 1047.06 540.624 1047.06 535.631ZM1058.87 534.298V535.631C1058.87 539.059 1059.2 542.275 1059.88 545.279C1060.6 548.284 1061.7 550.929 1063.18 553.214C1064.66 555.499 1066.55 557.298 1068.83 558.609C1071.12 559.879 1073.85 560.514 1077.02 560.514C1080.91 560.514 1084.11 559.689 1086.61 558.038C1089.14 556.388 1091.18 554.208 1092.7 551.5C1094.22 548.792 1095.41 545.851 1096.25 542.677V527.379C1095.75 525.051 1095.01 522.809 1094.03 520.65C1093.1 518.45 1091.87 516.503 1090.35 514.811C1088.87 513.076 1087.03 511.7 1084.83 510.685C1082.67 509.669 1080.11 509.161 1077.15 509.161C1073.93 509.161 1071.16 509.838 1068.83 511.192C1066.55 512.504 1064.66 514.324 1063.18 516.651C1061.7 518.937 1060.6 521.603 1059.88 524.649C1059.2 527.654 1058.87 530.87 1058.87 534.298ZM1163.86 557.467V522.11C1163.86 519.402 1163.31 517.053 1162.21 515.065C1161.15 513.033 1159.54 511.468 1157.38 510.367C1155.22 509.267 1152.56 508.717 1149.38 508.717C1146.42 508.717 1143.82 509.225 1141.58 510.24C1139.38 511.256 1137.64 512.589 1136.37 514.239C1135.14 515.89 1134.53 517.667 1134.53 519.571H1122.79C1122.79 517.117 1123.42 514.684 1124.69 512.272C1125.96 509.859 1127.78 507.68 1130.15 505.733C1132.56 503.745 1135.44 502.179 1138.78 501.036C1142.17 499.851 1145.93 499.259 1150.08 499.259C1155.08 499.259 1159.48 500.105 1163.28 501.798C1167.14 503.491 1170.14 506.051 1172.3 509.479C1174.5 512.864 1175.6 517.117 1175.6 522.237V554.23C1175.6 556.515 1175.79 558.948 1176.17 561.529C1176.59 564.111 1177.21 566.332 1178.01 568.194V569.21H1165.76C1165.17 567.856 1164.7 566.057 1164.36 563.815C1164.03 561.529 1163.86 559.413 1163.86 557.467ZM1165.89 527.569L1166.01 535.821H1154.14C1150.8 535.821 1147.82 536.096 1145.19 536.647C1142.57 537.154 1140.37 537.937 1138.59 538.995C1136.82 540.053 1135.46 541.386 1134.53 542.994C1133.6 544.56 1133.13 546.401 1133.13 548.517C1133.13 550.675 1133.62 552.643 1134.59 554.42C1135.57 556.197 1137.03 557.615 1138.97 558.673C1140.96 559.689 1143.4 560.196 1146.27 560.196C1149.87 560.196 1153.04 559.435 1155.79 557.911C1158.55 556.388 1160.72 554.526 1162.33 552.325C1163.98 550.125 1164.87 547.988 1165 545.914L1170.01 551.564C1169.72 553.341 1168.91 555.309 1167.6 557.467C1166.29 559.625 1164.53 561.699 1162.33 563.688C1160.17 565.634 1157.59 567.263 1154.59 568.575C1151.63 569.845 1148.28 570.48 1144.56 570.48C1139.9 570.48 1135.82 569.57 1132.31 567.75C1128.84 565.93 1126.13 563.497 1124.18 560.45C1122.28 557.361 1121.33 553.912 1121.33 550.104C1121.33 546.422 1122.05 543.185 1123.49 540.392C1124.92 537.556 1127 535.208 1129.71 533.346C1132.41 531.441 1135.67 530.003 1139.48 529.029C1143.29 528.056 1147.54 527.569 1152.24 527.569H1165.89Z" fill="black"/>
</g>
<defs>
<clipPath id="clip0_153_1680">
<rect width="1834.1" height="614.44" fill="white"/>
</clipPath>
</defs>
</svg>
